<svg width="16" height="16" viewBox="0 0 16 16" fill="none" xmlns="http://www.w3.org/2000/svg">
<path d="M1.78772 0.533203C1.03964 0.533203 0.4198 1.15304 0.4198 1.90113V14.2124C0.4198 14.9605 1.03964 15.5804 1.78772 15.5804H14.099C14.8471 15.5804 15.467 14.9605 15.467 14.2124V1.90113C15.467 1.15304 14.8471 0.533203 14.099 0.533203H1.78772ZM1.78772 1.90113H14.099V14.2124H10.551V9.5957H12.325L12.5815 7.54382H10.551V6.21864C10.551 5.62017 10.6979 5.21407 11.5556 5.21407H12.667V3.35455C12.4773 3.3305 11.8201 3.29043 11.064 3.29043C9.48764 3.29043 8.41361 4.23889 8.41361 6.0049V7.54382H6.61821V9.5957H8.41361V14.2124H1.78772V1.90113Z" fill="#818181"/>
</svg>
