<svg width="16" height="16" viewBox="0 0 16 16" fill="none" xmlns="http://www.w3.org/2000/svg">
<path d="M10.6683 0.533203H4.58639C2.11466 0.533203 0.10376 2.5441 0.10376 5.01584V11.0977C0.10376 13.5695 2.11466 15.5804 4.58639 15.5804H10.6683C13.14 15.5804 15.1509 13.5695 15.1509 11.0977V5.01584C15.1509 2.5441 13.14 0.533203 10.6683 0.533203ZM13.6372 11.0977C13.6372 12.7374 12.308 14.0666 10.6683 14.0666H4.58639C2.94674 14.0666 1.6175 12.7374 1.6175 11.0977V5.01584C1.6175 3.37615 2.94674 2.04695 4.58639 2.04695H10.6683C12.308 2.04695 13.6372 3.37615 13.6372 5.01584V11.0977Z" fill="#818181"/>
<path d="M7.6274 4.16498C5.48149 4.16498 3.73566 5.9108 3.73566 8.05668C3.73566 10.2026 5.48149 11.9484 7.6274 11.9484C9.7733 11.9484 11.5191 10.2026 11.5191 8.05668C11.5191 5.91078 9.7733 4.16498 7.6274 4.16498ZM7.6274 10.4347C6.31406 10.4347 5.24941 9.37005 5.24941 8.05671C5.24941 6.74337 6.31409 5.67872 7.6274 5.67872C8.94073 5.67872 10.0054 6.74337 10.0054 8.05671C10.0054 9.37002 8.94071 10.4347 7.6274 10.4347Z" fill="#818181"/>
<path d="M11.5267 5.1268C12.0417 5.1268 12.4592 4.70929 12.4592 4.19426C12.4592 3.67923 12.0417 3.26172 11.5267 3.26172C11.0116 3.26172 10.5941 3.67923 10.5941 4.19426C10.5941 4.70929 11.0116 5.1268 11.5267 5.1268Z" fill="#818181"/>
</svg>
