<svg width="78" height="28" viewBox="0 0 78 28" fill="none" xmlns="http://www.w3.org/2000/svg">
<path d="M14.8035 2.30053H17.1378V16.7625H14.8035V2.30053Z" fill="black"/>
<path d="M28.1704 16.1855C27.5493 16.5564 26.2276 17.0127 24.9266 17.0127C22.5923 17.0127 20.7732 15.5467 20.7732 12.4059V7.59019H18.6655V5.40015H20.7732V2.81861L23.1074 2.30348V5.40309H27.776V7.59313H23.1074V12.2823C23.1074 13.9366 23.8728 14.8432 25.3387 14.8432C26.0628 14.8432 26.8664 14.596 27.7554 14.2839L28.1704 16.1855Z" fill="black"/>
<path d="M40.4835 11.723H31.2465C31.4319 13.81 32.9008 14.9669 34.7994 14.9669C36.1623 14.9669 37.2985 14.387 37.8372 13.2713H40.2539C39.365 15.8117 37.1955 17.0097 34.7788 17.0097C31.3289 17.0097 28.871 14.5312 28.871 11.1019C28.871 7.67261 31.3083 5.15288 34.7376 5.15288C38.3965 5.15288 40.7102 7.98463 40.4835 11.723ZM31.3731 9.82144H37.9844C37.6341 8.2731 36.4567 7.17808 34.7405 7.17808C32.9626 7.17808 31.7646 8.29371 31.3731 9.82144Z" fill="black"/>
<path d="M42.3262 0.855225H44.6811V16.7654H42.3262V0.855225Z" fill="black"/>
<path d="M64.1059 9.47115V16.7654H61.7717V9.96568C61.7717 8.27016 61.0887 7.38414 59.5198 7.38414C57.68 7.38414 56.7293 8.80884 56.7293 10.8752L56.7499 16.7625H54.395V9.96568C54.395 8.27016 53.7121 7.38414 52.1431 7.38414C50.3034 7.38414 49.3732 8.80884 49.3732 10.8752V16.7625H47.0389V5.40015H49.3732V7.21929C50.1591 5.91822 51.2748 5.15288 52.9055 5.15288C54.6423 5.15288 55.8609 6.00064 56.4172 7.52837C57.1826 6.06246 58.463 5.15288 60.2616 5.15288C62.6577 5.15288 64.1059 6.76304 64.1059 9.47115Z" fill="black"/>
<path d="M77.5229 5.40015V16.7625H75.1886V14.8609C74.3614 16.162 72.9986 17.0097 71.2206 17.0097C68.1828 17.0097 65.9722 14.5518 65.9722 11.0813C65.9722 7.61079 68.224 5.15288 71.2 5.15288C72.9986 5.15288 74.3614 6.04185 75.1886 7.34293V5.40015H77.5229ZM75.2063 11.0813C75.2063 8.91187 73.6991 7.38414 71.7151 7.38414C69.7312 7.38414 68.3271 8.91187 68.3271 11.0813C68.3271 13.2713 69.7518 14.7785 71.7151 14.7785C73.6991 14.7814 75.2063 13.2713 75.2063 11.0813Z" fill="black"/>
<path d="M15.7161 22.1493V23.7477H18.5332V24.7014H15.7161V26.4234H18.7539V27.3771H14.7183V21.1956H18.7539V22.1493H15.7161Z" fill="black"/>
<path d="M19.7871 20.5774H20.7939V27.3771H19.7871V20.5774Z" fill="black"/>
<path d="M26.7458 25.2224H22.7985C22.8779 26.1143 23.5049 26.6088 24.3174 26.6088C24.9002 26.6088 25.3859 26.3616 25.6155 25.8847H26.6487C26.269 26.9709 25.3417 27.4831 24.3085 27.4831C22.8338 27.4831 21.7829 26.4234 21.7829 24.9575C21.7829 23.4916 22.8249 22.4142 24.2909 22.4142C25.8539 22.4142 26.843 23.624 26.7458 25.2224ZM22.8514 24.41H25.6773C25.5272 23.7477 25.0238 23.2796 24.2909 23.2796C23.5314 23.2796 23.0192 23.7565 22.8514 24.41Z" fill="black"/>
<path d="M27.5229 24.9487C27.5229 23.5004 28.6003 22.4142 30.0485 22.4142C31.1966 22.4142 32.2121 23.1118 32.4329 24.2863H31.3997C31.2142 23.677 30.6755 23.3414 30.0485 23.3414C29.1478 23.3414 28.5296 24.0126 28.5296 24.9487C28.5296 25.8935 29.1655 26.5559 30.0397 26.5559C30.6755 26.5559 31.2142 26.2026 31.3997 25.6021H32.4329C32.2033 26.8031 31.1789 27.4831 30.0397 27.4831C28.6003 27.4831 27.5229 26.3969 27.5229 24.9487Z" fill="black"/>
<path d="M37.0131 27.1299C36.7482 27.2888 36.183 27.4831 35.6267 27.4831C34.6288 27.4831 33.8517 26.8561 33.8517 25.5138V23.4562H32.9509V22.5202H33.8517V21.4163L34.8496 21.1956V22.5202H36.8453V23.4562H34.8496V25.4608C34.8496 26.1673 35.1763 26.5559 35.8033 26.5559C36.1124 26.5559 36.4568 26.4499 36.8365 26.3174L37.0131 27.1299Z" fill="black"/>
<path d="M40.7574 22.4407V23.4562C40.6691 23.4474 40.5896 23.4386 40.4571 23.4386C39.5476 23.4386 38.8499 23.9508 38.8499 25.1518V27.3771H37.852V22.5202H38.8499V23.4827C39.1413 22.8028 39.6977 22.4142 40.466 22.4142C40.5896 22.4142 40.6867 22.423 40.7574 22.4407Z" fill="black"/>
<path d="M46.2825 24.9487C46.2825 26.4057 45.1787 27.4831 43.7657 27.4831C42.3616 27.4831 41.249 26.3969 41.249 24.9487C41.249 23.4827 42.3793 22.4142 43.7657 22.4142C45.161 22.4142 46.2825 23.4827 46.2825 24.9487ZM42.2557 24.9487C42.2557 25.8847 42.918 26.5294 43.7657 26.5294C44.6135 26.5294 45.2758 25.8847 45.2758 24.9487C45.2758 24.0126 44.6047 23.3679 43.7657 23.3679C42.9268 23.3679 42.2557 24.0126 42.2557 24.9487Z" fill="black"/>
<path d="M51.6516 24.3128V27.3771H50.6538V24.5159C50.6538 23.7653 50.327 23.3679 49.5941 23.3679C48.7375 23.3679 48.2783 23.9243 48.2783 24.8603V27.3771H47.2804V22.5202H48.2783V23.3238C48.6227 22.7586 49.1437 22.4142 49.9031 22.4142C50.9982 22.4142 51.6516 23.1295 51.6516 24.3128Z" fill="black"/>
<path d="M53.9771 20.9395C53.9771 21.3015 53.7033 21.5665 53.3236 21.5665C52.9615 21.5665 52.679 21.3015 52.679 20.9395C52.679 20.5862 52.9615 20.3301 53.3236 20.3301C53.7063 20.3301 53.9771 20.5862 53.9771 20.9395ZM52.832 22.5202H53.8299V27.3771H52.832V22.5202Z" fill="black"/>
<path d="M54.7984 24.9487C54.7984 23.5004 55.8757 22.4142 57.324 22.4142C58.472 22.4142 59.4875 23.1118 59.7083 24.2863H58.6751C58.4896 23.677 57.951 23.3414 57.324 23.3414C56.4232 23.3414 55.8051 24.0126 55.8051 24.9487C55.8051 25.8935 56.4409 26.5559 57.3151 26.5559C57.951 26.5559 58.4896 26.2026 58.6751 25.6021H59.7083C59.4787 26.8031 58.4543 27.4831 57.3151 27.4831C55.8757 27.4831 54.7984 26.3969 54.7984 24.9487Z" fill="black"/>
<path d="M60.4059 25.8141H61.4215C61.5716 26.3527 61.969 26.6 62.8079 26.6C63.4525 26.6 63.8499 26.4057 63.8499 26.0437C63.8499 25.6375 63.3907 25.5756 62.5783 25.3814C61.2184 25.0458 60.6444 24.772 60.6444 23.9596C60.6444 22.9794 61.4744 22.4142 62.6931 22.4142C63.9382 22.4142 64.6359 23.0059 64.8125 23.889H63.8058C63.6645 23.4916 63.2936 23.2973 62.6754 23.2973C62.0308 23.2973 61.6511 23.5181 61.6511 23.8536C61.6511 24.1627 61.9513 24.2422 62.7991 24.4453C64.1149 24.7544 64.8743 24.984 64.8743 25.9289C64.8743 26.9709 63.9382 27.4831 62.7902 27.4831C61.5098 27.4831 60.5914 26.8649 60.4059 25.8141Z" fill="black"/>
<path d="M1.72813 7.92874C2.15407 7.92874 2.49936 7.58345 2.49936 7.15752C2.49936 6.73158 2.15407 6.38629 1.72813 6.38629C1.3022 6.38629 0.956909 6.73158 0.956909 7.15752C0.956909 7.58345 1.3022 7.92874 1.72813 7.92874Z" fill="black"/>
<path d="M7.61239 7.92874C8.03833 7.92874 8.38362 7.58345 8.38362 7.15752C8.38362 6.73158 8.03833 6.38629 7.61239 6.38629C7.18646 6.38629 6.84117 6.73158 6.84117 7.15752C6.84117 7.58345 7.18646 7.92874 7.61239 7.92874Z" fill="black"/>
<path d="M7.61239 13.813C8.03833 13.813 8.38362 13.4677 8.38362 13.0418C8.38362 12.6158 8.03833 12.2706 7.61239 12.2706C7.18646 12.2706 6.84117 12.6158 6.84117 13.0418C6.84117 13.4677 7.18646 13.813 7.61239 13.813Z" fill="black"/>
</svg>
