<svg width="24" height="23" viewBox="0 0 24 23" fill="none" xmlns="http://www.w3.org/2000/svg">
<path d="M12.0133 0C7.81376 0 4.39736 3.43775 4.39736 7.66295V15.3375C4.39736 19.5626 7.81376 23 12.0133 23C16.2128 23 19.6292 19.5627 19.6292 15.3375V7.66295C19.6292 3.43775 16.2127 0 12.0133 0ZM18.783 15.3375C18.783 19.093 15.7461 22.1482 12.0133 22.1482C8.28045 22.1482 5.24356 19.093 5.24356 15.3375V7.66295C5.24356 3.90744 8.28045 0.85184 12.0133 0.85184C15.7461 0.85184 18.783 3.90733 18.783 7.66295V15.3375Z" fill="#888888"/>
<path d="M12.0133 2.55566C11.7796 2.55566 11.5901 2.74619 11.5901 2.98164V6.83869C11.5901 7.07414 11.7796 7.26467 12.0133 7.26467C12.2469 7.26467 12.4364 7.07414 12.4364 6.83869V2.98164C12.4363 2.74619 12.2469 2.55566 12.0133 2.55566Z" fill="#888888"/>
</svg>
