<svg width="15" height="14" viewBox="0 0 15 14" fill="none" xmlns="http://www.w3.org/2000/svg">
<path d="M9.94344 0.788086C8.086 0.788086 6.57857 2.28895 6.53832 4.1371C4.89605 3.94013 3.82663 3.3261 3.17061 2.72108C2.4431 2.05012 2.2128 1.45401 2.2128 1.45401C2.17917 1.3693 2.12359 1.29507 2.05176 1.23896C1.97993 1.18285 1.89445 1.1469 1.80411 1.13479C1.71377 1.12268 1.62184 1.13486 1.53777 1.17007C1.4537 1.20528 1.38053 1.26225 1.32578 1.33512C1.32578 1.33512 0.709951 2.15601 0.709951 3.35294C0.709951 4.03724 0.926013 4.54357 1.18351 4.97268C1.17403 4.96824 1.11004 4.94596 1.11004 4.94596C1.02828 4.90514 0.937108 4.8869 0.845939 4.89312C0.75477 4.89934 0.666917 4.92981 0.591464 4.98136C0.516012 5.03291 0.455698 5.10367 0.416758 5.18634C0.377819 5.26901 0.361667 5.36058 0.369973 5.45159C0.369973 5.45159 0.567414 6.89479 1.92425 7.94965L1.78265 7.98505C1.70578 8.00424 1.63441 8.04097 1.57412 8.09236C1.51382 8.14375 1.46625 8.20841 1.43513 8.28127C1.40401 8.35412 1.39018 8.43319 1.39473 8.51229C1.39929 8.59138 1.4221 8.66834 1.46137 8.73714C1.46137 8.73714 1.69145 9.12635 2.17339 9.53599C2.45913 9.77887 2.87889 10.0295 3.37366 10.2614C2.76603 10.4834 1.85997 10.7055 0.53896 10.7055C0.440385 10.7055 0.343894 10.7339 0.26103 10.7873C0.178167 10.8407 0.11244 10.9168 0.0717127 11.0066C0.0309857 11.0964 0.0169833 11.196 0.0313805 11.2935C0.0457778 11.391 0.0879652 11.4823 0.152895 11.5565C0.152895 11.5565 0.544885 11.9883 1.31977 12.364C2.09466 12.7397 3.28831 13.0994 4.98471 13.0994C7.96668 13.0994 10.1092 11.669 11.4463 9.85593C12.7834 8.04291 13.3632 5.87031 13.3632 4.2079C13.3632 4.10241 13.3567 3.99841 13.3472 3.89531C14.0692 3.1996 14.3402 2.67659 14.3531 2.65095C14.4181 2.52065 14.3939 2.36417 14.293 2.26021C14.1925 2.1559 14.0366 2.12653 13.9043 2.1874L13.8488 2.21278C13.8013 2.23467 13.7538 2.2567 13.7059 2.27824C13.8451 2.0563 13.9549 1.81912 14.0312 1.57357C14.0736 1.43815 14.0278 1.28975 13.9156 1.2022C13.8035 1.11466 13.649 1.10528 13.5276 1.17949C13.1096 1.43353 12.7089 1.61137 12.2919 1.73054C11.6782 1.14835 10.852 0.788086 9.94344 0.788086ZM9.94344 1.81403C11.2714 1.81403 12.3373 2.87992 12.3373 4.2079C12.3373 5.62332 11.8057 7.63999 10.6207 9.24678C9.43571 10.8536 7.64543 12.0735 4.98471 12.0735C3.69709 12.0735 2.84056 11.8406 2.19877 11.5885C2.87105 11.4841 3.44988 11.3448 3.86593 11.1838C4.58739 10.9045 4.9767 10.582 4.9767 10.582C5.04811 10.5207 5.10128 10.4409 5.13041 10.3515C5.15953 10.262 5.16349 10.1662 5.14183 10.0746C5.12018 9.98305 5.07375 9.89919 5.00764 9.83223C4.94152 9.76526 4.85826 9.71778 4.76697 9.69496C3.83585 9.46218 3.23867 9.08568 2.86403 8.77188L3.39904 8.63829C3.50485 8.61188 3.59949 8.55245 3.66922 8.46861C3.73896 8.38478 3.78017 8.2809 3.78687 8.17206C3.79357 8.06321 3.76542 7.95506 3.70649 7.86331C3.64756 7.77155 3.56092 7.70096 3.45916 7.66177C2.34939 7.23494 1.88337 6.6313 1.64505 6.12553C1.93505 6.18556 2.20506 6.25978 2.59085 6.25978C2.70637 6.25969 2.81848 6.22061 2.90903 6.14886C2.99958 6.07712 3.06326 5.97692 3.08976 5.86447C3.11627 5.75203 3.10405 5.63393 3.05508 5.5293C3.00612 5.42467 2.92327 5.33963 2.81995 5.28794C2.81995 5.28794 1.73589 4.78927 1.73589 3.35294C1.73589 3.09507 1.80731 2.93175 1.85946 2.73644C2.03838 2.97689 2.18583 3.20883 2.47463 3.47518C3.35511 4.28722 4.81043 5.11523 7.00921 5.23317C7.07879 5.23689 7.14839 5.22639 7.21378 5.20232C7.27916 5.17825 7.33896 5.14111 7.38952 5.09318C7.44008 5.04524 7.48035 4.98751 7.50786 4.9235C7.53538 4.85949 7.54957 4.79054 7.54957 4.72087V4.2079C7.54957 2.87992 8.61547 1.81403 9.94344 1.81403Z" fill="#818181"/>
</svg>
